<svg xmlns="http://www.w3.org/2000/svg" version="1.1" xmlns:xlink="http://www.w3.org/1999/xlink" xmlns:svgjs="http://svgjs.dev/svgjs" width="1440" height="560" preserveAspectRatio="none" viewBox="0 0 1440 560"><g mask="url(&quot;#SvgjsMask1004&quot;)" fill="none"><rect width="1440" height="560" x="0" y="0" fill="rgba(57, 92, 107, 1)"></rect><path d="M133.69 530.82L198.65 568.32L198.65 643.32L133.69 680.82L68.74 643.32L68.74 568.32zM198.65 -31.68L263.6 5.82L263.6 80.82L198.65 118.32L133.69 80.82L133.69 5.82zM328.56 -31.68L393.51 5.82L393.51 80.82L328.56 118.32L263.6 80.82L263.6 5.82zM393.51 530.82L458.46 568.32L458.46 643.32L393.51 680.82L328.56 643.32L328.56 568.32zM523.42 305.82L588.37 343.32L588.37 418.32L523.42 455.82L458.46 418.32L458.46 343.32zM783.23 530.82L848.19 568.32L848.19 643.32L783.23 680.82L718.28 643.32L718.28 568.32zM913.14 80.82L978.09 118.32L978.09 193.32L913.14 230.82L848.18 193.32L848.18 118.32zM913.14 305.82L978.09 343.32L978.09 418.32L913.14 455.82L848.18 418.32L848.18 343.32zM1237.91 418.32L1302.86 455.82L1302.86 530.82L1237.91 568.32L1172.95 530.82L1172.95 455.82zM1432.77 80.82L1497.72 118.32L1497.72 193.32L1432.77 230.82L1367.82 193.32L1367.82 118.32zM1432.77 530.82L1497.72 568.32L1497.72 643.32L1432.77 680.82L1367.82 643.32L1367.82 568.32zM1562.68 305.82L1627.63 343.32L1627.63 418.32L1562.68 455.82L1497.72 418.32L1497.72 343.32zM1562.68 530.82L1627.63 568.32L1627.63 643.32L1562.68 680.82L1497.72 643.32L1497.72 568.32z" stroke="rgba(188, 211, 242, 1)" stroke-width="2"></path><path d="M126.19 530.82 a7.5 7.5 0 1 0 15 0 a7.5 7.5 0 1 0 -15 0zM191.15 568.32 a7.5 7.5 0 1 0 15 0 a7.5 7.5 0 1 0 -15 0zM191.15 643.32 a7.5 7.5 0 1 0 15 0 a7.5 7.5 0 1 0 -15 0zM126.19 680.82 a7.5 7.5 0 1 0 15 0 a7.5 7.5 0 1 0 -15 0zM61.24 643.32 a7.5 7.5 0 1 0 15 0 a7.5 7.5 0 1 0 -15 0zM61.24 568.32 a7.5 7.5 0 1 0 15 0 a7.5 7.5 0 1 0 -15 0zM191.15 -31.68 a7.5 7.5 0 1 0 15 0 a7.5 7.5 0 1 0 -15 0zM256.1 5.82 a7.5 7.5 0 1 0 15 0 a7.5 7.5 0 1 0 -15 0zM256.1 80.82 a7.5 7.5 0 1 0 15 0 a7.5 7.5 0 1 0 -15 0zM191.15 118.32 a7.5 7.5 0 1 0 15 0 a7.5 7.5 0 1 0 -15 0zM126.19 80.82 a7.5 7.5 0 1 0 15 0 a7.5 7.5 0 1 0 -15 0zM126.19 5.82 a7.5 7.5 0 1 0 15 0 a7.5 7.5 0 1 0 -15 0zM321.06 -31.68 a7.5 7.5 0 1 0 15 0 a7.5 7.5 0 1 0 -15 0zM386.01 5.82 a7.5 7.5 0 1 0 15 0 a7.5 7.5 0 1 0 -15 0zM386.01 80.82 a7.5 7.5 0 1 0 15 0 a7.5 7.5 0 1 0 -15 0zM321.06 118.32 a7.5 7.5 0 1 0 15 0 a7.5 7.5 0 1 0 -15 0zM386.01 530.82 a7.5 7.5 0 1 0 15 0 a7.5 7.5 0 1 0 -15 0zM450.96 568.32 a7.5 7.5 0 1 0 15 0 a7.5 7.5 0 1 0 -15 0zM450.96 643.32 a7.5 7.5 0 1 0 15 0 a7.5 7.5 0 1 0 -15 0zM386.01 680.82 a7.5 7.5 0 1 0 15 0 a7.5 7.5 0 1 0 -15 0zM321.06 643.32 a7.5 7.5 0 1 0 15 0 a7.5 7.5 0 1 0 -15 0zM321.06 568.32 a7.5 7.5 0 1 0 15 0 a7.5 7.5 0 1 0 -15 0zM515.92 305.82 a7.5 7.5 0 1 0 15 0 a7.5 7.5 0 1 0 -15 0zM580.87 343.32 a7.5 7.5 0 1 0 15 0 a7.5 7.5 0 1 0 -15 0zM580.87 418.32 a7.5 7.5 0 1 0 15 0 a7.5 7.5 0 1 0 -15 0zM515.92 455.82 a7.5 7.5 0 1 0 15 0 a7.5 7.5 0 1 0 -15 0zM450.96 418.32 a7.5 7.5 0 1 0 15 0 a7.5 7.5 0 1 0 -15 0zM450.96 343.32 a7.5 7.5 0 1 0 15 0 a7.5 7.5 0 1 0 -15 0zM775.73 530.82 a7.5 7.5 0 1 0 15 0 a7.5 7.5 0 1 0 -15 0zM840.69 568.32 a7.5 7.5 0 1 0 15 0 a7.5 7.5 0 1 0 -15 0zM840.69 643.32 a7.5 7.5 0 1 0 15 0 a7.5 7.5 0 1 0 -15 0zM775.73 680.82 a7.5 7.5 0 1 0 15 0 a7.5 7.5 0 1 0 -15 0zM710.78 643.32 a7.5 7.5 0 1 0 15 0 a7.5 7.5 0 1 0 -15 0zM710.78 568.32 a7.5 7.5 0 1 0 15 0 a7.5 7.5 0 1 0 -15 0zM905.64 80.82 a7.5 7.5 0 1 0 15 0 a7.5 7.5 0 1 0 -15 0zM970.59 118.32 a7.5 7.5 0 1 0 15 0 a7.5 7.5 0 1 0 -15 0zM970.59 193.32 a7.5 7.5 0 1 0 15 0 a7.5 7.5 0 1 0 -15 0zM905.64 230.82 a7.5 7.5 0 1 0 15 0 a7.5 7.5 0 1 0 -15 0zM840.68 193.32 a7.5 7.5 0 1 0 15 0 a7.5 7.5 0 1 0 -15 0zM840.68 118.32 a7.5 7.5 0 1 0 15 0 a7.5 7.5 0 1 0 -15 0zM905.64 305.82 a7.5 7.5 0 1 0 15 0 a7.5 7.5 0 1 0 -15 0zM970.59 343.32 a7.5 7.5 0 1 0 15 0 a7.5 7.5 0 1 0 -15 0zM970.59 418.32 a7.5 7.5 0 1 0 15 0 a7.5 7.5 0 1 0 -15 0zM905.64 455.82 a7.5 7.5 0 1 0 15 0 a7.5 7.5 0 1 0 -15 0zM840.68 418.32 a7.5 7.5 0 1 0 15 0 a7.5 7.5 0 1 0 -15 0zM840.68 343.32 a7.5 7.5 0 1 0 15 0 a7.5 7.5 0 1 0 -15 0zM1230.41 418.32 a7.5 7.5 0 1 0 15 0 a7.5 7.5 0 1 0 -15 0zM1295.36 455.82 a7.5 7.5 0 1 0 15 0 a7.5 7.5 0 1 0 -15 0zM1295.36 530.82 a7.5 7.5 0 1 0 15 0 a7.5 7.5 0 1 0 -15 0zM1230.41 568.32 a7.5 7.5 0 1 0 15 0 a7.5 7.5 0 1 0 -15 0zM1165.45 530.82 a7.5 7.5 0 1 0 15 0 a7.5 7.5 0 1 0 -15 0zM1165.45 455.82 a7.5 7.5 0 1 0 15 0 a7.5 7.5 0 1 0 -15 0zM1425.27 80.82 a7.5 7.5 0 1 0 15 0 a7.5 7.5 0 1 0 -15 0zM1490.22 118.32 a7.5 7.5 0 1 0 15 0 a7.5 7.5 0 1 0 -15 0zM1490.22 193.32 a7.5 7.5 0 1 0 15 0 a7.5 7.5 0 1 0 -15 0zM1425.27 230.82 a7.5 7.5 0 1 0 15 0 a7.5 7.5 0 1 0 -15 0zM1360.32 193.32 a7.5 7.5 0 1 0 15 0 a7.5 7.5 0 1 0 -15 0zM1360.32 118.32 a7.5 7.5 0 1 0 15 0 a7.5 7.5 0 1 0 -15 0zM1425.27 530.82 a7.5 7.5 0 1 0 15 0 a7.5 7.5 0 1 0 -15 0zM1490.22 568.32 a7.5 7.5 0 1 0 15 0 a7.5 7.5 0 1 0 -15 0zM1490.22 643.32 a7.5 7.5 0 1 0 15 0 a7.5 7.5 0 1 0 -15 0zM1425.27 680.82 a7.5 7.5 0 1 0 15 0 a7.5 7.5 0 1 0 -15 0zM1360.32 643.32 a7.5 7.5 0 1 0 15 0 a7.5 7.5 0 1 0 -15 0zM1360.32 568.32 a7.5 7.5 0 1 0 15 0 a7.5 7.5 0 1 0 -15 0zM1555.18 305.82 a7.5 7.5 0 1 0 15 0 a7.5 7.5 0 1 0 -15 0zM1620.13 343.32 a7.5 7.5 0 1 0 15 0 a7.5 7.5 0 1 0 -15 0zM1620.13 418.32 a7.5 7.5 0 1 0 15 0 a7.5 7.5 0 1 0 -15 0zM1555.18 455.82 a7.5 7.5 0 1 0 15 0 a7.5 7.5 0 1 0 -15 0zM1490.22 418.32 a7.5 7.5 0 1 0 15 0 a7.5 7.5 0 1 0 -15 0zM1490.22 343.32 a7.5 7.5 0 1 0 15 0 a7.5 7.5 0 1 0 -15 0zM1555.18 530.82 a7.5 7.5 0 1 0 15 0 a7.5 7.5 0 1 0 -15 0zM1620.13 568.32 a7.5 7.5 0 1 0 15 0 a7.5 7.5 0 1 0 -15 0zM1620.13 643.32 a7.5 7.5 0 1 0 15 0 a7.5 7.5 0 1 0 -15 0zM1555.18 680.82 a7.5 7.5 0 1 0 15 0 a7.5 7.5 0 1 0 -15 0z" fill="rgba(188, 211, 242, 1)"></path><path d="M38.3 -31.32L81.6 -6.32L81.6 43.68L38.3 68.68L-5 43.68L-5 -6.32zM81.6 43.68L124.91 68.68L124.91 118.68L81.6 143.68L38.3 118.68L38.3 68.68zM38.3 118.68L81.6 143.68L81.6 193.68L38.3 218.68L-5 193.68L-5 143.68zM81.6 193.68L124.91 218.68L124.91 268.68L81.6 293.68L38.3 268.68L38.3 218.68zM81.6 343.68L124.91 368.68L124.91 418.68L81.6 443.68L38.3 418.68L38.3 368.68zM38.3 418.68L81.6 443.68L81.6 493.68L38.3 518.68L-5 493.68L-5 443.68zM81.6 493.68L124.91 518.68L124.91 568.68L81.6 593.68L38.3 568.68L38.3 518.68zM168.21 43.68L211.51 68.68L211.51 118.68L168.21 143.68L124.91 118.68L124.91 68.68zM168.21 193.68L211.51 218.68L211.51 268.68L168.21 293.68L124.91 268.68L124.91 218.68zM254.81 43.68L298.12 68.68L298.12 118.68L254.81 143.68L211.51 118.68L211.51 68.68zM211.51 118.68L254.81 143.68L254.81 193.68L211.51 218.68L168.21 193.68L168.21 143.68zM254.81 193.68L298.12 218.68L298.12 268.68L254.81 293.68L211.51 268.68L211.51 218.68zM341.42 43.68L384.72 68.68L384.72 118.68L341.42 143.68L298.12 118.68L298.12 68.68zM341.42 193.68L384.72 218.68L384.72 268.68L341.42 293.68L298.12 268.68L298.12 218.68zM298.12 418.68L341.42 443.68L341.42 493.68L298.12 518.68L254.81 493.68L254.81 443.68zM341.42 493.68L384.72 518.68L384.72 568.68L341.42 593.68L298.12 568.68L298.12 518.68zM428.02 193.68L471.33 218.68L471.33 268.68L428.02 293.68L384.72 268.68L384.72 218.68zM384.72 268.68L428.02 293.68L428.02 343.68L384.72 368.68L341.42 343.68L341.42 293.68zM428.02 343.68L471.33 368.68L471.33 418.68L428.02 443.68L384.72 418.68L384.72 368.68zM428.02 493.68L471.33 518.68L471.33 568.68L428.02 593.68L384.72 568.68L384.72 518.68zM471.33 -31.32L514.63 -6.32L514.63 43.68L471.33 68.68L428.02 43.68L428.02 -6.32zM601.23 43.68L644.53 68.68L644.53 118.68L601.23 143.68L557.93 118.68L557.93 68.68zM557.93 118.68L601.23 143.68L601.23 193.68L557.93 218.68L514.63 193.68L514.63 143.68zM601.23 343.68L644.53 368.68L644.53 418.68L601.23 443.68L557.93 418.68L557.93 368.68zM557.93 418.68L601.23 443.68L601.23 493.68L557.93 518.68L514.63 493.68L514.63 443.68zM601.23 493.68L644.53 518.68L644.53 568.68L601.23 593.68L557.93 568.68L557.93 518.68zM687.84 43.68L731.14 68.68L731.14 118.68L687.84 143.68L644.53 118.68L644.53 68.68zM687.84 193.68L731.14 218.68L731.14 268.68L687.84 293.68L644.53 268.68L644.53 218.68zM644.53 418.68L687.84 443.68L687.84 493.68L644.53 518.68L601.23 493.68L601.23 443.68zM687.84 493.68L731.14 518.68L731.14 568.68L687.84 593.68L644.53 568.68L644.53 518.68zM731.14 -31.32L774.44 -6.32L774.44 43.68L731.14 68.68L687.84 43.68L687.84 -6.32zM774.44 43.68L817.75 68.68L817.75 118.68L774.44 143.68L731.14 118.68L731.14 68.68zM774.44 193.68L817.75 218.68L817.75 268.68L774.44 293.68L731.14 268.68L731.14 218.68zM731.14 418.68L774.44 443.68L774.44 493.68L731.14 518.68L687.84 493.68L687.84 443.68zM774.44 493.68L817.75 518.68L817.75 568.68L774.44 593.68L731.14 568.68L731.14 518.68zM817.75 -31.32L861.05 -6.32L861.05 43.68L817.75 68.68L774.44 43.68L774.44 -6.32zM861.05 193.68L904.35 218.68L904.35 268.68L861.05 293.68L817.75 268.68L817.75 218.68zM904.35 -31.32L947.65 -6.32L947.65 43.68L904.35 68.68L861.05 43.68L861.05 -6.32zM947.65 43.68L990.96 68.68L990.96 118.68L947.65 143.68L904.35 118.68L904.35 68.68zM904.35 118.68L947.65 143.68L947.65 193.68L904.35 218.68L861.05 193.68L861.05 143.68zM904.35 268.68L947.65 293.68L947.65 343.68L904.35 368.68L861.05 343.68L861.05 293.68zM947.65 343.68L990.96 368.68L990.96 418.68L947.65 443.68L904.35 418.68L904.35 368.68zM947.65 493.68L990.96 518.68L990.96 568.68L947.65 593.68L904.35 568.68L904.35 518.68zM990.96 268.68L1034.26 293.68L1034.26 343.68L990.96 368.68L947.65 343.68L947.65 293.68zM1034.26 343.68L1077.56 368.68L1077.56 418.68L1034.26 443.68L990.96 418.68L990.96 368.68zM990.96 418.68L1034.26 443.68L1034.26 493.68L990.96 518.68L947.65 493.68L947.65 443.68zM1120.86 343.68L1164.16 368.68L1164.16 418.68L1120.86 443.68L1077.56 418.68L1077.56 368.68zM1120.86 493.68L1164.16 518.68L1164.16 568.68L1120.86 593.68L1077.56 568.68L1077.56 518.68zM1164.16 -31.32L1207.47 -6.32L1207.47 43.68L1164.16 68.68L1120.86 43.68L1120.86 -6.32zM1207.47 493.68L1250.77 518.68L1250.77 568.68L1207.47 593.68L1164.16 568.68L1164.16 518.68zM1294.07 43.68L1337.38 68.68L1337.38 118.68L1294.07 143.68L1250.77 118.68L1250.77 68.68zM1337.38 -31.32L1380.68 -6.32L1380.68 43.68L1337.38 68.68L1294.07 43.68L1294.07 -6.32zM1380.68 43.68L1423.98 68.68L1423.98 118.68L1380.68 143.68L1337.38 118.68L1337.38 68.68zM1337.38 268.68L1380.68 293.68L1380.68 343.68L1337.38 368.68L1294.07 343.68L1294.07 293.68zM1337.38 418.68L1380.68 443.68L1380.68 493.68L1337.38 518.68L1294.07 493.68L1294.07 443.68zM1423.98 -31.32L1467.28 -6.32L1467.28 43.68L1423.98 68.68L1380.68 43.68L1380.68 -6.32zM1423.98 268.68L1467.28 293.68L1467.28 343.68L1423.98 368.68L1380.68 343.68L1380.68 293.68zM1467.28 343.68L1510.59 368.68L1510.59 418.68L1467.28 443.68L1423.98 418.68L1423.98 368.68z" stroke="rgba(128, 164, 237, 1)" stroke-width="2"></path></g><defs><mask id="SvgjsMask1004"><rect width="1440" height="560" fill="#ffffff"></rect></mask></defs></svg>