<svg xmlns="http://www.w3.org/2000/svg" version="1.1" xmlns:xlink="http://www.w3.org/1999/xlink" xmlns:svgjs="http://svgjs.dev/svgjs" width="1440" height="560" preserveAspectRatio="none" viewBox="0 0 1440 560"><g mask="url(&quot;#SvgjsMask1024&quot;)" fill="none"><rect width="1440" height="560" x="0" y="0" fill="rgba(168, 224, 255, 1)"></rect><path d="M115.16 0C138.46 38.83 111.67 75.05 84 140C54.09 210.22 22.82 270.34 0 270.34C-19.18 270.34 0 205.17 0 140C0 70 -31.59 38.41 0 0C25.99 -31.59 96.46 -31.17 115.16 0" stroke="rgba(99, 173, 242, 1)" stroke-width="2"></path><path d="M700 102.54C675.57 102.54 645.71 121.78 645.71 140C645.71 157.78 675.34 174.55 700 174.55C717.6 174.55 730.23 157.58 730.23 140C730.23 121.57 717.83 102.54 700 102.54" stroke="rgba(99, 173, 242, 1)" stroke-width="2"></path><path d="M980 46.67C961.57 46.67 980.78 102 953.65 140C910.78 200.05 896.99 191.57 840 242.77C819.08 261.57 797.83 259.53 797.83 280C797.83 304.66 814.59 311.03 840 333.03C895.46 381.03 899.38 377.13 959.58 420C969.38 426.98 969.01 432.73 980 432.73C998.82 432.73 1009.91 436.7 1019.2 420C1052.41 360.33 1062.04 350.77 1065 280C1067.9 210.77 1055.37 207.13 1030.91 140C1012.87 90.47 1000.2 46.67 980 46.67" stroke="rgba(99, 173, 242, 1)" stroke-width="2"></path><path d="M1260 255C1238.49 268.11 1216.25 266.53 1216.25 280C1216.25 294.25 1240.38 292.52 1260 310.43C1317.04 362.52 1330.2 356.38 1369.57 420C1400.2 469.5 1389.81 536.67 1400 536.67C1409.89 536.67 1407.76 478.44 1409.72 420C1412.07 350.11 1411.32 349.91 1408.62 280C1406.46 223.91 1430.12 173.07 1400 168C1355.81 160.57 1330.36 212.11 1260 255" stroke="rgba(48, 77, 109, 1)" stroke-width="2"></path><path d="M700 382.78C680.1 382.78 662.31 402.16 662.31 420C662.31 436.57 680.29 451.61 700 451.61C722.84 451.61 747.42 436.72 747.42 420C747.42 402.31 722.65 382.78 700 382.78" stroke="rgba(130, 160, 188, 1)" stroke-width="2"></path><path d="M58.71 0C60.94 50.26 33.48 70.51 6.22 140C4.13 145.34 1.69 149.66 0 149.66C-1.42 149.66 0 144.83 0 140C0 70 -20.68 49.32 0 0C8.67 -20.68 57.83 -19.74 58.71 0" stroke="rgba(99, 173, 242, 1)" stroke-width="2"></path><path d="M218.18 140C220.15 72.87 233.03 17.09 280 7.78C333.94 -2.91 361.34 102.3 420 100C460.51 98.41 437.29 29.32 478.33 0C507.29 -20.68 519.16 0 560 0C630 0 630 0 700 0C733.16 0 766.32 -11.66 766.32 0C766.32 14.96 734.34 28.2 700 53.24C638.33 98.2 629.9 90.9 574.29 140C559.9 152.7 570.83 160.48 560 176.84C524.49 230.48 481.6 236.84 481.6 280C481.6 309.72 524 322.61 560 322.61C584.05 322.61 577.82 297.5 601.7 280C647.82 246.2 655 220 700 220C731.98 220 755.66 250.18 755.66 280C755.66 309.42 728.36 309.76 700 338.48C659.25 379.76 617.44 380.92 617.44 420C617.44 456.3 656.82 489.25 700 489.25C750.03 489.25 753.77 456.93 803.87 420C823.77 405.34 820.87 386.06 840 386.06C862.27 386.06 862.58 404.15 886.67 420C932.58 450.21 934.11 447.9 980 478.18C1040.21 517.9 1098.87 537.57 1098.87 560C1098.87 578.48 1039.43 560 980 560C910 560 910 560 840 560C770 560 770 560 700 560C630 560 630 560 560 560C490 560 490 560 420 560C379.42 560 355.92 585.63 338.84 560C309.26 515.63 341.64 488.02 326.67 420C312.22 354.39 304.61 355.74 280 292.73C277.27 285.74 274.82 286.96 272 280C243.91 210.59 216.15 208.98 218.18 140" stroke="rgba(130, 160, 188, 1)" stroke-width="2"></path><path d="M770 140C770 100.47 804.64 56.76 840 56.76C875.88 56.76 912.47 100.54 912.47 140C912.47 174.93 875.95 205.53 840 205.53C804.72 205.53 770 174.85 770 140" stroke="rgba(48, 77, 109, 1)" stroke-width="2"></path><path d="M1110.45 140C1073.61 69.38 1030.99 45.49 1034.09 0C1035.76 -24.51 1077.05 0 1120 0C1190 0 1190 0 1260 0C1330 0 1330 0 1400 0C1470 0 1505 -35 1540 0C1575 35 1540 70 1540 140C1540 210 1540 210 1540 280C1540 350 1540 350 1540 420C1540 462.61 1557.12 505.22 1540 505.22C1516.29 505.22 1476.06 471.5 1458.33 420C1437.29 358.89 1464.86 349.85 1462.46 280C1460.05 209.85 1468.24 205.27 1448.7 140C1437.01 100.98 1433.57 72.99 1400 71.43C1339.22 68.61 1331.41 106.27 1260 131.25C1233.41 140.55 1231.51 133.43 1204 140C1161.51 150.16 1155.91 164.71 1120 164.71C1109.14 164.71 1116.57 151.73 1110.45 140" stroke="rgba(99, 173, 242, 1)" stroke-width="2"></path><path d="M0 338.15C37.67 338.15 63.51 374.81 118.22 420C133.51 432.63 129.83 436.46 140 453.79C170.91 506.46 200.39 524.46 200.39 560C200.39 577.57 170.19 560 140 560C109.2 560 105.36 571.44 78.4 560C35.36 541.74 21.54 539.08 0 500.61C-17.66 469.08 0 460.31 0 420C0 379.08 -21.44 338.15 0 338.15" stroke="rgba(48, 77, 109, 1)" stroke-width="2"></path><path d="M1156.13 560C1156.13 528.35 1213.47 452.67 1260 452.67C1299.66 452.67 1328.51 525.11 1328.51 560C1328.51 578.77 1294.26 560 1260 560C1208.07 560 1156.13 582.01 1156.13 560" stroke="rgba(99, 173, 242, 1)" stroke-width="2"></path><path d="M2.26 0C2.26 2.14 0.58 5.83 0 5.83C-0.55 5.83 -0.81 2.1 0 0C0.32 -0.81 2.26 -0.77 2.26 0" stroke="rgba(48, 77, 109, 1)" stroke-width="2"></path><path d="M263.64 140C263.64 122.32 266.92 105 280 105C301.35 105 332.5 121.77 332.5 140C332.5 158.96 300.87 179.38 280 179.38C266.44 179.38 263.64 159.51 263.64 140" stroke="rgba(99, 173, 242, 1)" stroke-width="2"></path><path d="M560 46.67C538.54 46.15 536.67 16.12 536.67 0C536.67 -7.21 548.34 0 560 0C630 0 630 0 700 0C702.45 0 704.91 -0.86 704.91 0C704.91 1.11 702.99 2.98 700 3.94C630.53 26.31 620.2 48.12 560 46.67" stroke="rgba(130, 160, 188, 1)" stroke-width="2"></path><path d="M809.77 140C809.77 122.93 824.73 104.05 840 104.05C855.49 104.05 871.29 122.96 871.29 140C871.29 155.08 855.52 168.3 840 168.3C824.76 168.3 809.77 155.05 809.77 140" stroke="rgba(48, 77, 109, 1)" stroke-width="2"></path><path d="M1120 11.67C1113.67 10.72 1113.64 3.95 1113.64 0C1113.64 -1.89 1116.82 0 1120 0C1190 0 1190 0 1260 0C1330 0 1400 -5.43 1400 0C1400 5.5 1330.33 18.94 1260 21.87C1190.33 24.77 1186.85 21.66 1120 11.67" stroke="rgba(48, 77, 109, 1)" stroke-width="2"></path><path d="M1499.42 140C1467.49 63.13 1388.82 38.56 1400 0C1409.11 -31.44 1505 -35 1540 0C1575 35 1540 70 1540 140C1540 210 1540 210 1540 280C1540 350 1540 350 1540 420C1540 437.25 1546.93 454.49 1540 454.49C1530.4 454.49 1509.95 442.16 1506.94 420C1498.1 354.92 1518.19 349.83 1516.31 280C1514.43 209.83 1525.64 203.13 1499.42 140" stroke="rgba(99, 173, 242, 1)" stroke-width="2"></path><path d="M676.17 280C676.17 272.79 689.09 265.45 700 265.45C707.75 265.45 713.49 272.77 713.49 280C713.49 287.13 707.72 294.18 700 294.18C689.06 294.18 676.17 287.16 676.17 280" stroke="rgba(48, 77, 109, 1)" stroke-width="2"></path><path d="M0 392C12.89 392 40.44 406.07 40.44 420C40.44 433.86 12.93 447.58 0 447.58C-7.29 447.58 0 433.79 0 420C0 406 -7.33 392 0 392" stroke="rgba(99, 173, 242, 1)" stroke-width="2"></path><path d="M385 420C390.55 381.26 389.33 351.32 420 347.59C476.83 340.67 494.57 367.65 560 398.7C570.85 403.85 563.5 411.71 572.56 420C633.5 475.8 631.71 481.02 700 526.88C735.95 551.02 781.05 551.4 781.05 560C781.05 567.96 740.53 560 700 560C630 560 630 560 560 560C490 560 490 560 420 560C404.78 560 392.69 572.49 389.57 560C375.19 502.49 375.33 487.47 385 420" stroke="rgba(130, 160, 188, 1)" stroke-width="2"></path><path d="M902.22 560C902.22 550.46 942.62 523.64 980 523.64C1007.92 523.64 1032.83 550.03 1032.83 560C1032.83 568.21 1006.41 560 980 560C941.11 560 902.22 568.64 902.22 560" stroke="rgba(130, 160, 188, 1)" stroke-width="2"></path></g><defs><mask id="SvgjsMask1024"><rect width="1440" height="560" fill="#ffffff"></rect></mask></defs></svg>